<svg id="Capa_1" enable-background="new 0 0 511.991 511.991" height="512" viewBox="0 0 511.991 511.991" width="512" xmlns="http://www.w3.org/2000/svg"><g><path d="m483.601 268.405-2.871-14.355c-1.402-7.012-7.558-12.059-14.708-12.059h-46.176l49.536-182.795c6.468-23.866-6.81-48.778-30.229-56.715-23.423-7.939-49.109 3.769-58.483 26.649l-63.869 155.867-18.115-10.869c5.99-18.472 2.746-27.433 3.673-83.864 0-8.284-6.716-15-15-15h-60.677c-36.608 0-67.154 26.37-73.689 61.109-12.76-10.044-28.833-16.059-46.295-16.059h-60.677c-8.284 0-15 6.716-15 15v60.678c0 17.327 5.922 33.287 15.827 46h-.877c-7.152 0-13.309 5.05-14.709 12.063l-2.889 14.47c-17.752 88.908 13.974 180.803 82.837 239.856 2.718 2.33 6.181 3.611 9.762 3.611h270c3.58 0 7.041-1.28 9.759-3.609 68.913-59.042 100.667-150.996 82.87-239.978zm-301.902-27.934 75.206-56.427c7.094 4.379 94.555 56.735 96.579 57.947h-171.785zm226.731-199.966c3.381-8.251 12.647-12.471 21.093-9.611 8.446 2.862 13.235 11.848 10.902 20.455l-48.443 178.757-49.159-29.495zm-181.747 64.758h45.677c-.193 46.627.437 46.308-.576 52.723l-8.096-4.857c-5.23-3.139-11.84-2.796-16.72.864l-65.27 48.973c-.027-15.424-.012-34.778-.016-52.702.001-24.814 20.188-45.001 45.001-45.001zm-165.662 45.05h45.678c24.6 0 44.641 19.844 44.984 44.365.003 3.917.014 21.185.016 25.1l-34.732-34.732c-5.857-5.857-15.355-5.857-21.213 0s-5.858 15.355 0 21.213l34.732 34.732h-24.465c-24.813 0-45-20.187-45-45zm324.299 331.678h-258.696c-99.476-89.64-68.332-209.697-68.352-210h395.452c-.007.111 26.932 124.148-68.404 210z"/></g></svg>