<svg id="Capa_1" enable-background="new 0 0 512 512" height="512" viewBox="0 0 512 512" width="512" xmlns="http://www.w3.org/2000/svg"><g><g><path clip-rule="evenodd" d="m484.237 18h-291.642c-8.569 0-15.578 7.003-15.578 15.565v113.606h140.174c8.569 0 15.578 7.003 15.578 15.537v12.503h42.79l63.419 60.446 22.53-60.446h22.729c8.541 0 15.55-6.975 15.55-15.537v-126.109c0-8.562-7.009-15.565-15.55-15.565z" fill="#ffbdbc" fill-rule="evenodd"/></g><g><path clip-rule="evenodd" d="m317.191 147.171h-140.174-151.439c-8.569 0-15.578 7.003-15.578 15.537v126.109c0 8.562 7.009 15.565 15.578 15.565h22.7l22.53 60.446 63.419-60.446h45.003 137.961c8.569 0 15.578-7.003 15.578-15.565v-12.503-101.103-12.503c0-8.534-7.008-15.537-15.578-15.537z" fill="#ffda8f" fill-rule="evenodd"/></g><g><path clip-rule="evenodd" d="m486.45 276.314h-153.681v12.503c0 8.562-7.009 15.565-15.578 15.565h-137.96v113.606c0 8.534 7.037 15.565 15.578 15.565h182.964l61.149 58.263h3.065l21.736-58.263h22.729c8.513 0 15.521-6.946 15.55-15.48v-.085-126.109-.085c-.03-8.534-7.039-15.48-15.552-15.48z" fill="#ccf5fc" fill-rule="evenodd"/></g><g><path d="m269.861 369.062h-47.699c-5.523 0-10 4.478-10 10s4.477 10 10 10h47.699c5.523 0 10-4.478 10-10s-4.477-10-10-10z"/><path d="m463.665 369.062h-133.25c-5.523 0-10 4.478-10 10s4.477 10 10 10h133.25c5.523 0 10-4.478 10-10s-4.477-10-10-10z"/><path d="m463.665 320.807h-92.362c-5.523 0-10 4.478-10 10s4.477 10 10 10h92.362c5.523 0 10-4.478 10-10s-4.477-10-10-10z"/><path d="m461.452 82.492c5.523 0 10-4.478 10-10s-4.477-10-10-10h-34.136c-5.523 0-10 4.478-10 10s4.477 10 10 10z"/><path d="m376.865 62.492h-156.916c-5.523 0-10 4.478-10 10s4.477 10 10 10h156.916c5.523 0 10-4.478 10-10s-4.477-10-10-10z"/><path d="m359.09 120.747c0 5.522 4.477 10 10 10h92.362c5.523 0 10-4.478 10-10s-4.477-10-10-10h-92.362c-5.523 0-10 4.478-10 10z"/><path d="m486.45 266.314h-143.68v-81.104h28.788l60.522 57.685c1.88 1.793 4.358 2.762 6.899 2.762.747 0 1.5-.084 2.244-.255 3.275-.754 5.953-3.104 7.126-6.253l20.104-53.938h15.784c14.088 0 25.55-11.455 25.55-25.536v-126.11c0-14.096-11.462-25.565-25.55-25.565h-165.286c-5.523 0-10 4.478-10 10s4.477 10 10 10h165.286c3.008 0 5.55 2.549 5.55 5.565v126.109c0 3.001-2.542 5.536-5.55 5.536h-22.729c-4.176 0-7.912 2.595-9.37 6.508l-17.235 46.239-52.444-49.985c-1.86-1.772-4.331-2.762-6.899-2.762h-32.79v-2.503c0-14.081-11.474-25.537-25.578-25.537h-130.175v-103.605c0-3.017 2.555-5.565 5.578-5.565h36.462c5.523 0 10-4.478 10-10s-4.477-10-10-10h-36.462c-14.104 0-25.578 11.469-25.578 25.565v103.605h-141.439c-14.104.001-25.578 11.457-25.578 25.538v126.109c0 14.097 11.474 25.565 25.578 25.565h15.755l20.104 53.938c1.174 3.149 3.851 5.499 7.126 6.253.744.171 1.497.255 2.244.255 2.541 0 5.02-.97 6.899-2.762l60.522-57.685h31.001v103.605c0 14.097 11.474 25.565 25.578 25.565h178.962l60.521 57.685c1.88 1.792 4.359 2.762 6.899 2.762.747 0 1.5-.084 2.244-.255 3.275-.754 5.953-3.104 7.126-6.253l20.105-53.938h15.784c14.088 0 25.55-11.469 25.55-25.565v-126.108c.002-14.097-11.459-25.565-25.548-25.565zm-352.223 28.069c-2.569 0-5.04.989-6.899 2.762l-52.445 49.985-17.235-46.239c-1.458-3.913-5.194-6.508-9.37-6.508h-22.7c-3.023 0-5.578-2.549-5.578-5.565v-126.11c0-3.001 2.555-5.537 5.578-5.537h291.613c3.023 0 5.578 2.536 5.578 5.537v126.109c0 3.017-2.555 5.565-5.578 5.565h-182.964zm357.773 123.605c0 3.017-2.542 5.565-5.55 5.565h-22.729c-4.176 0-7.912 2.595-9.37 6.508l-17.235 46.239-52.444-49.985c-1.86-1.772-4.33-2.762-6.899-2.762h-182.964c-3.023 0-5.578-2.549-5.578-5.565v-103.605h127.961c14.104 0 25.578-11.469 25.578-25.565v-2.503h143.68c3.008 0 5.55 2.548 5.55 5.564z"/><path d="m206.681 201.636c0-5.522-4.477-10-10-10h-148.318c-5.523 0-10 4.478-10 10s4.477 10 10 10h148.318c5.523 0 10-4.478 10-10z"/><path d="m257.263 211.636h32.575c5.523 0 10-4.478 10-10s-4.477-10-10-10h-32.575c-5.523 0-10 4.478-10 10s4.477 10 10 10z"/><path d="m299.837 249.891c0-5.522-4.477-10-10-10h-148.346c-5.523 0-10 4.478-10 10s4.477 10 10 10h148.346c5.523 0 10-4.478 10-10z"/><path d="m80.938 239.891h-32.575c-5.523 0-10 4.478-10 10s4.477 10 10 10h32.575c5.523 0 10-4.478 10-10s-4.477-10-10-10z"/><path d="m274.004 28h.028c5.523 0 9.986-4.478 9.986-10s-4.491-10-10.014-10-10 4.478-10 10 4.477 10 10 10z"/></g></g></svg>