<svg id="Capa_1" enable-background="new 0 0 512 512" height="512" viewBox="0 0 512 512" width="512" xmlns="http://www.w3.org/2000/svg"><g><path d="m362.667 60.099h-213.334c-22.562 0-40.917 18.355-40.917 40.917v135.171c0 22.562 18.355 40.917 40.917 40.917h213.334c22.561 0 40.916-18.355 40.916-40.917v-135.172c0-22.561-18.355-40.916-40.916-40.916zm25.916 176.088c0 14.291-11.625 25.917-25.916 25.917h-213.334c-14.291 0-25.917-11.626-25.917-25.917v-135.172c0-14.291 11.626-25.917 25.917-25.917h213.334c14.29 0 25.916 11.626 25.916 25.917z"/><path d="m93.395 320.687c0 36.149 24.487 67.513 59.548 76.272 13.424 3.354 26.573-6.643 26.795-20.582l.806-50.55c.234-14.693-11.589-26.704-26.282-26.704h-39.305c-11.889.001-21.562 9.674-21.562 21.564zm21.563-6.563h39.305c6.309 0 11.384 5.158 11.284 11.465l-.806 50.55c-.068 4.225-4.055 7.294-8.162 6.268-28.37-7.088-48.184-32.468-48.184-61.72 0-3.619 2.944-6.563 6.563-6.563z"/><path d="m357.737 299.124c-14.694 0-26.516 12.013-26.282 26.704l.806 50.549c.221 13.926 13.358 23.939 26.795 20.582 35.061-8.759 59.548-40.124 59.548-76.272 0-11.89-9.673-21.563-21.563-21.563zm45.868 21.563c0 29.252-19.814 54.632-48.184 61.72-4.116 1.027-8.094-2.051-8.162-6.268l-.806-50.549c-.1-6.308 4.975-11.465 11.284-11.465h39.305c3.619-.001 6.563 2.943 6.563 6.562z"/><path d="m187.75 143.48c-4.142 0-7.5 3.358-7.5 7.5v13.115c0 4.142 3.358 7.5 7.5 7.5s7.5-3.358 7.5-7.5v-13.115c0-4.142-3.358-7.5-7.5-7.5z"/><path d="m324.25 143.48c-4.142 0-7.5 3.358-7.5 7.5v13.115c0 4.142 3.358 7.5 7.5 7.5s7.5-3.358 7.5-7.5v-13.115c0-4.142-3.358-7.5-7.5-7.5z"/><path d="m278.921 158.05c-3.123-2.721-7.86-2.396-10.582.727-6.542 7.507-18.156 7.485-24.679 0-2.721-3.124-7.459-3.448-10.582-.727s-3.448 7.459-.727 10.582c12.513 14.36 34.796 14.346 47.296 0 2.722-3.123 2.397-7.861-.726-10.582z"/><path d="m456.182 168.217c-4.142 0-7.5 3.358-7.5 7.5v144.975c0 59.924-48.752 108.676-108.676 108.676h-27.382v-30.224c0-19.673-16.004-35.682-35.682-35.682h-41.884c-19.675 0-35.682 16.007-35.682 35.682v30.224h-27.382c-21.184 0-41.716-6.103-59.378-17.649-3.468-2.266-8.115-1.292-10.381 2.174-2.267 3.467-1.293 8.115 2.174 10.382 20.108 13.145 43.479 20.093 67.585 20.093h27.382v36.885c0 16.955 13.794 30.748 30.749 30.748h51.752c16.955 0 30.749-13.793 30.749-30.748v-36.885h27.382c68.195 0 123.676-55.48 123.676-123.676v-144.975c-.002-4.142-3.359-7.5-7.502-7.5zm-158.558 313.035c0 8.684-7.065 15.748-15.749 15.748h-51.752c-8.684 0-15.749-7.064-15.749-15.748v-44.375c0-.003 0-.006 0-.01v-37.724c0-11.404 9.278-20.682 20.682-20.682h41.884c11.433 0 20.682 9.305 20.682 20.682.002 16.806.002 65.856.002 82.109z"/><path d="m362.667 0h-213.334c-55.7 0-101.015 45.315-101.015 101.015v219.676c0 30.624 11.282 60.013 31.769 82.752 1.481 1.644 3.523 2.48 5.574 2.48 1.789 0 3.584-.636 5.018-1.928 3.077-2.772 3.325-7.515.552-10.592-18-19.979-27.913-45.803-27.913-72.712v-219.676c0-47.429 38.586-86.015 86.015-86.015h213.334c47.429 0 86.015 38.586 86.015 86.015v44.702c0 4.142 3.358 7.5 7.5 7.5s7.5-3.358 7.5-7.5v-44.702c0-55.7-45.315-101.015-101.015-101.015z"/></g></svg>