<svg height="511pt" viewBox="0 0 511.99981 511" width="511pt" xmlns="http://www.w3.org/2000/svg"><path d="m492 412.496094c-11.046875 0-20 8.957031-20 20 0 22.058594-17.945312 40-40 40h-352c-10.714844 0-20.78125-4.179688-28.34375-11.773438-6.484375-6.511718-10.453125-14.855468-11.421875-23.859375 6.21875-12.164062 19.765625-42.53125 19.765625-76.363281 0-26.53125-8.355469-52.5625-14.84375-68.777344l22.03125-14.6875 35.640625 27.332032c7.179687 5.507812 17.164063 5.507812 24.34375 0l34.828125-26.707032 34.828125 26.707032c7.179687 5.507812 17.164063 5.507812 24.34375 0l34.828125-26.707032 34.828125 26.707032c7.179687 5.507812 17.164063 5.507812 24.34375 0l35.078125-26.898438 36.898438 27.140625c7.167968 5.273437 16.960937 5.175781 24.023437-.238281l35.402344-27.152344 20.636719 14.355469c-5.453126 13.996093-12.515626 35.40625-14.597657 56.742187-1.070312 10.996094 6.972657 20.773438 17.964844 21.847656 11 1.066407 20.773437-6.972656 21.847656-17.964843 2.746094-28.171875 17.414063-58.695313 17.550781-58.980469 4.320313-8.863281 1.535157-19.550781-6.558593-25.179688l-46-32c-.875-.613281-1.792969-1.140624-2.734375-1.597656-1.632813-28.90625-10.101563-57.125-24.777344-82.183594l-15.910156-27.15625v-84.703124c10.109375-1.003907 18-9.527344 18-19.898438 0-11.046875-8.953125-20-20-20h-117.996094c-11.046875 0-20 8.953125-20 20 0 10.707031 8.421875 19.425781 19 19.949219v84.3125l-15.9375 25.347656c-.054688.089844-.105469.179687-.160156.265625-16.890625-39.773438-53.558594-69.976562-99.183594-76.554688 3.085938-3.273437 6.5625-6.453124 10.484375-9.476562 8.75-6.742188 10.378906-19.300781 3.640625-28.050781-6.742188-8.75-19.300781-10.375-28.050781-3.636719-13.839844 10.660156-23.875 22.648438-31.148438 34.667969-2.195312-3.355469-4.625-6.714844-7.332031-10.054688-33.015625-40.761719-79.15625-49.433593-108.628906-44.472656-7.984375 1.34375-14.371094 7.367187-16.175782 15.257813-1.808593 7.890624 1.316407 16.09375 7.921876 20.777343 10.527343 7.46875 12.453124 15.492188 15.480468 31.488281 2.613282 13.8125 5.867188 31.003907 19.238282 46.996094 2.160156 2.585938 4.457031 5.015625 6.875 7.296875-8.90625 14.914063-14.703126 31.566407-16.960938 48.980469-2.800781 21.597656-.117188 43.0625 7.734375 62.960938l-31.890625 21.257812c-8.5 5.667969-11.347656 16.859375-6.625 25.917969.179688.339843 17.71875 34.359375 17.71875 66.769531 0 31.785156-17.058594 61.300781-17.203125 61.550781-1.816406 3.0625-2.78125 6.550781-2.79296875 10.113281-.09375005 21.429688 8.18749975 41.597657 23.30859375 56.78125 15.125 15.191407 35.257812 23.550782 56.6875 23.550782h352c44.109375 0 80-35.886719 80-79.996094 0-11.046875-8.957031-20.003906-20-20.003906zm-181.070312-241.097656 19-30.230469c2.003906-3.1875 3.070312-6.875 3.070312-10.644531v-90.023438h40.996094v90.023438c0 3.554687.949218 7.042968 2.742187 10.109374l18.652344 31.84375c12.828125 21.898438 19.605469 46.890626 19.605469 72.269532 0 1.964844.296875 3.855468.824218 5.648437l-17.074218 13.089844-36.894532-27.140625c-7.171874-5.273438-16.960937-5.175781-24.023437.238281l-34.828125 26.710938-14.5625-11.164063c.355469-1.488281.5625-3.035156.5625-4.632812 0-26.957032 7.582031-53.273438 21.929688-76.097656zm-216.699219-88.949219c10.664062 13.160156 15.054687 26.542969 16.773437 36.6875-16.203125-1.46875-28.683594-7.328125-37.167968-17.476563-6.695313-8.003906-8.429688-17.171875-10.625-28.777344-.957032-5.054687-1.980469-10.464843-3.523438-16.015624 12.234375 4.839843 24.460938 13.132812 34.542969 25.582031zm25.1875 77.050781h.679687c5.753906-.027344 9.875-.128906 11.410156-.171875.8125.101563 1.632813.171875 2.46875.171875.617188 0 1.238282-.027344 1.863282-.085938 11-1.015624 19.089844-10.753906 18.078125-21.753906-.023438-.214844-.890625-10.875 2.726562-25.125 4.691407-.148437 9.410157.082032 14.105469.691406 23.179688 3.007813 43.796875 14.859376 58.058594 33.371094 14.261718 18.515625 20.460937 41.476563 17.457031 64.652344-1.449219 11.179688-4.960937 21.734375-10.394531 31.441406l-26.871094 20.601563-34.828125-26.707031c-7.179687-5.507813-17.160156-5.507813-24.339844 0l-34.832031 26.707031-34.828125-26.707031c-.082031-.0625-.171875-.117188-.253906-.179688-6.839844-14.871094-9.324219-31.210938-7.1875-47.667969 1.582031-12.183593 5.679687-23.816406 11.980469-34.1875 10.570312 3.273438 22.1875 4.949219 34.707031 4.949219zm0 0"/></svg>