<svg height="512pt" viewBox="0 0 512 512" width="512pt" xmlns="http://www.w3.org/2000/svg"><path d="m0 187.019531h512v324.980469h-512zm0 0" fill="#00da78"/><path d="m256 187.019531h256v324.980469h-256zm0 0" fill="#00b77a"/><path d="m217 461.222656-44.769531 50.777344h39.996093l43.773438-49.648438 89.609375-101.652343 166.390625 109.410156v-35.910156l-146.359375-96.226563 133.078125-150.953125h-39.988281l-202.730469 229.960938-18.949219 21.492187-155.902343-101.160156 133.570312-150.292969h-40.128906l-174.589844 196.453125v45.148438l60.988281-68.628906zm0 0" fill="#ffdd48"/><path d="m512 434.199219v35.910156l-166.390625-109.410156-89.609375 101.652343v-45.371093l202.730469-229.960938h39.988281l-133.078125 150.953125zm0 0" fill="#fcbe00"/><path d="m361.988281 105.988281c0 32.042969-16.316406 56.945313-34.496093 81.734375l-42.90625 58.523438c-2.324219 3.171875-4.679688 6.433594-6.957032 9.589844-4.609375 6.382812-9.378906 12.984374-14.289062 19.382812l-7.339844 9.558594-.171875.222656-71.320313-97.277344c-18.179687-24.789062-34.496093-49.699218-34.496093-81.734375 0-58.445312 47.542969-105.988281 105.976562-105.988281h.445313c58.238281.234375 105.554687 47.691406 105.554687 105.988281zm0 0" fill="#ff623f"/><path d="m311.644531 105.988281c0 30.683594-24.964843 55.640625-55.644531 55.640625s-55.644531-24.957031-55.644531-55.640625c0-30.6875 24.964843-55.644531 55.644531-55.644531 30.683594 0 55.644531 24.957031 55.644531 55.644531zm0 0" fill="#fff"/><path d="m361.988281 105.988281c0 32.042969-16.316406 56.945313-34.496093 81.734375l-42.90625 58.523438c-2.324219 3.171875-4.679688 6.433594-6.957032 9.589844-4.609375 6.382812-9.378906 12.984374-14.289062 19.382812l-7.339844 9.558594v-284.777344h.433594c58.238281.234375 105.554687 47.691406 105.554687 105.988281zm0 0" fill="#e30020"/><path d="m256 161.628906v-111.285156c30.683594 0 55.644531 24.957031 55.644531 55.644531 0 30.683594-24.960937 55.640625-55.644531 55.640625zm0 0" fill="#d6d6d8"/></svg>