<?xml version="1.0" encoding="UTF-8"?>
<svg xmlns="http://www.w3.org/2000/svg" width="512" height="512" viewBox="0 0 512 512"><g id="Line_stroke_cut_Ex" data-name="Line stroke cut Ex"><g><path d="M184,184H168c0,1.41-3.037,4-8,4s-8-2.59-8-4H136c0,11.215,10.542,20,24,20S184,195.215,184,184Z"/><rect x="120" y="128" width="16" height="16"/><rect x="184" y="128" width="16" height="16"/><path d="M480,368A112.127,112.127,0,0,1,368,480a113.29,113.29,0,0,1-16.664-1.232,63.491,63.491,0,0,0-5.075-17.251,96.147,96.147,0,1,0-56.169-37.483Q289.049,424,288,424H270.982A112.032,112.032,0,0,1,368,256c55.915,0,103.641,41.725,111.013,97.057l15.859-2.114C486.445,287.7,431.9,240,368,240a127.757,127.757,0,0,0-96.993,44.563L214.5,258.205l-12.787-38.361,9.453-4.787A37.818,37.818,0,0,0,232,181.156V168h12a28.032,28.032,0,0,0,28-28V124a28.032,28.032,0,0,0-28-28H232V44a28.032,28.032,0,0,0-28-28H118A38.043,38.043,0,0,0,80,54v2H96V54a22.025,22.025,0,0,1,22-22h71.248L176.89,73.195A31.806,31.806,0,0,1,146.239,96H98a2,2,0,0,1-2-2V72H80V94a18.1,18.1,0,0,0,.111,2H76a28.032,28.032,0,0,0-28,28v16a28.032,28.032,0,0,0,28,28H88v13.459a37.792,37.792,0,0,0,21.006,33.988l9.21,4.6L105.5,258.205,33.668,291.712A28.17,28.17,0,0,0,16,317.736V468a28.032,28.032,0,0,0,28,28H344a7.958,7.958,0,0,0,4.61-1.462A128.092,128.092,0,0,0,496,368ZM368,288a80,80,0,1,1-80,80A80.091,80.091,0,0,1,368,288ZM244,112a12.013,12.013,0,0,1,12,12v16a12.013,12.013,0,0,1-12,12H232V112ZM216,44V80H191.5q.384-1.091.72-2.207l13.692-45.641A12.019,12.019,0,0,1,216,44ZM76,152a12.013,12.013,0,0,1-12-12V124a12.013,12.013,0,0,1,12-12H88v40Zm28,29.459V112h42.239A47.729,47.729,0,0,0,182.1,96H216v85.156a21.894,21.894,0,0,1-12.062,19.627l-38.573,19.533a12.051,12.051,0,0,1-10.788.028l-38.415-19.207A21.881,21.881,0,0,1,104,181.459Zm43.421,53.2a28.12,28.12,0,0,0,25.172-.064l14.691-7.44,11.963,35.889-3.231,5.386a42,42,0,0,1-72.031,0l-3.232-5.387,11.92-35.759ZM44,480a12.013,12.013,0,0,1-12-12V317.736a12.07,12.07,0,0,1,7.692-11.2c.172-.067.343-.139.51-.217L108.849,274.3l1.417,2.362a58,58,0,0,0,99.469,0l1.417-2.36,49.983,23.316A127.979,127.979,0,0,0,252.872,424H88v16H200v40Zm172-40h24v40H216Zm40,40V440h32a48.078,48.078,0,0,1,47.333,40Z"/><path d="M360,432h16V416h4a28,28,0,0,0,0-56H356a12,12,0,0,1,0-24h52V320H376V304H360v16h-4a28,28,0,0,0,0,56h24a12,12,0,0,1,0,24H328v16h32Z"/><path d="M306,184h42.155l29.6,37a8,8,0,0,0,12.494,0l29.6-37H462a18.021,18.021,0,0,0,18-18V34a18.021,18.021,0,0,0-18-18H306a18.021,18.021,0,0,0-18,18V166A18.021,18.021,0,0,0,306,184ZM304,34a2,2,0,0,1,2-2H462a2,2,0,0,1,2,2V166a2,2,0,0,1-2,2H416a8,8,0,0,0-6.247,3L384,203.194,358.247,171A8,8,0,0,0,352,168H306a2,2,0,0,1-2-2Z"/><rect x="312.782" y="92" width="142.436" height="16" transform="translate(20.272 258.612) rotate(-38.157)"/><path d="M344,96a24,24,0,1,0-24-24A24.027,24.027,0,0,0,344,96Zm0-32a8,8,0,1,1-8,8A8.009,8.009,0,0,1,344,64Z"/><path d="M424,104a24,24,0,1,0,24,24A24.027,24.027,0,0,0,424,104Zm0,32a8,8,0,1,1,8-8A8.009,8.009,0,0,1,424,136Z"/></g></g></svg>
