<svg id="Capa_1" enable-background="new 0 0 512 512" height="512" viewBox="0 0 512 512" width="512" xmlns="http://www.w3.org/2000/svg"><path d="m457.505 380.035c0-14.041-5.442-27.214-15.324-37.095-18.133-18.131-46.343-20.17-66.76-6.144 0 0-.065-147.01-.176-147.608-2.469-38.244-33.652-59.807-62.956-77.054-10.913-6.449-12.038-7.132-12.151-33.818 10.444-4.058 17.869-14.21 17.869-26.07v-24.282c.001-15.419-12.545-27.964-27.965-27.964h-150.167c-15.436 0-27.994 12.545-27.994 27.964v24.282c0 11.864 7.438 22.019 17.898 26.074-.113 26.678-1.24 27.36-12.168 33.807-29.304 17.264-60.47 38.833-62.94 77.061-.11.598-.176 4.207-.176 4.901v264.05c0 22.012 17.91 39.921 39.924 39.921h195.515c10.025 9.285 22.817 13.94 35.617 13.94 13.43 0 26.86-5.112 37.083-15.335l39.784-39.778c.002-.002.005-.004.008-.007s.004-.005.007-.008l39.749-39.743c9.881-9.879 15.323-23.053 15.323-37.094zm-325.457-352.071c0-4.299 3.511-7.795 7.827-7.795h150.167c4.3 0 7.799 3.497 7.799 7.795v24.282c0 4.299-3.499 7.795-7.799 7.795h-150.167c-4.316 0-7.827-3.497-7.827-7.795zm-4.194 101.537c19.866-11.721 21.879-21.581 22.083-49.292h130.043c.204 27.704 2.216 37.568 22.063 49.297 27.335 16.088 46.009 30.945 51.513 51.438h-93.724c-5.569 0-10.084 4.515-10.084 10.084s4.515 10.084 10.084 10.084h95.422v154.585l-42.778 42.772h-237.813v-197.356h95.393c5.569 0 10.084-4.515 10.084-10.084s-4.515-10.084-10.084-10.084h-93.695c5.503-20.486 24.168-35.346 51.493-51.444zm-53.191 328.639v-39.501h217.642l-3.838 3.838c-9.882 9.88-15.324 23.054-15.324 37.095 0 6.362 1.128 12.541 3.269 18.321h-181.993c-10.894-.001-19.756-8.862-19.756-19.753zm273.711 24.264c-12.586 12.584-33.063 12.583-45.648 0-6.072-6.071-9.416-14.18-9.416-22.833s3.344-16.762 9.416-22.833l21.056-21.053 11.575-11.574 45.671 45.643zm79.547-79.535-32.631 32.626-45.671-45.643 32.654-32.649c6.292-6.291 14.558-9.438 22.825-9.438 8.265 0 16.531 3.146 22.824 9.438 6.072 6.071 9.416 14.18 9.416 22.833-.001 8.653-3.345 16.761-9.417 22.833z"/><path d="m167.093 228.127-63.365 78.968c-2.428 3.025-2.905 7.175-1.227 10.672 1.678 3.498 5.213 5.723 9.092 5.723h19.36v30.888c0 5.569 4.515 10.084 10.084 10.084h67.843c5.569 0 10.084-4.515 10.084-10.084v-30.888h19.36c3.879 0 7.414-2.225 9.092-5.723 1.678-3.497 1.201-7.647-1.227-10.672l-63.365-78.968c-1.914-2.385-4.807-3.773-7.865-3.773-3.059 0-5.951 1.388-7.866 3.773zm50.21 75.195h-8.423c-5.569 0-10.084 4.515-10.084 10.084v30.888h-47.676v-30.888c0-5.569-4.515-10.084-10.084-10.084h-8.423l42.345-52.772z"/><path d="m241.525 244.522h69.742c5.569 0 10.084-4.515 10.084-10.084s-4.515-10.084-10.084-10.084h-69.742c-5.569 0-10.084 4.515-10.084 10.084.001 5.57 4.515 10.084 10.084 10.084z"/><path d="m311.267 344.294h-49.734c-5.569 0-10.084 4.515-10.084 10.084s4.515 10.084 10.084 10.084h49.734c5.569 0 10.084-4.515 10.084-10.084s-4.515-10.084-10.084-10.084z"/><path d="m311.267 304.314h-29.755c-5.569 0-10.084 4.515-10.084 10.084s4.515 10.084 10.084 10.084h29.755c5.569 0 10.084-4.515 10.084-10.084s-4.515-10.084-10.084-10.084z"/><path d="m311.267 264.334h-49.734c-5.569 0-10.084 4.515-10.084 10.084s4.515 10.084 10.084 10.084h49.734c5.569 0 10.084-4.515 10.084-10.084s-4.515-10.084-10.084-10.084z"/><path d="m214.945 201.113c5.569 0 10.084-4.515 10.084-10.084s-4.515-10.084-10.084-10.084h-.028c-5.569 0-10.07 4.515-10.07 10.084-.001 5.57 4.529 10.084 10.098 10.084z"/></svg>